<?xml version="1.0" encoding="iso-8859-1"?>
<!-- Generator: Adobe Illustrator 19.0.0, SVG Export Plug-In . SVG Version: 6.00 Build 0)  -->
<svg version="1.1" id="Capa_1" xmlns="http://www.w3.org/2000/svg" xmlns:xlink="http://www.w3.org/1999/xlink" x="0px" y="0px"
	 viewBox="0 0 512 512" style="enable-background:new 0 0 512 512;" xml:space="preserve">
<path style="fill:#CC7400;" d="M504.367,359.522v22.864H251.202V142.249h128.856v133.097c0,4.431,1.801,8.453,4.708,11.36
	c2.907,2.897,6.91,4.689,11.351,4.689h40.135c32.528,0,59.729,22.798,66.496,53.296
	C503.805,349.467,504.367,354.422,504.367,359.522z"/>
<path style="fill:#EE8700;" d="M502.748,344.692H319.271c-16.774,0-30.375-13.6-30.375-30.375V142.249h91.162v133.097
	c0,4.431,1.801,8.453,4.708,11.36c2.907,2.897,6.91,4.689,11.351,4.689h40.135C468.779,291.396,495.98,314.193,502.748,344.692z"/>
<path style="fill:#AA6100;" d="M400.854,118.736v29.479c0,0.257,0,0.505-0.019,0.763c-0.401,13.01-11.17,23.541-24.285,23.541
	H254.699c-13.362,0-24.294-10.941-24.294-24.303v-29.479c0-13.372,10.932-24.303,24.294-24.303H376.55
	C389.923,94.433,400.854,105.365,400.854,118.736z"/>
<path style="fill:#CC7400;" d="M400.854,118.736v29.479c0,0.257,0,0.505-0.019,0.763H292.28c-13.363,0-24.303-10.931-24.303-24.303
	V95.196c0-0.257,0-0.505,0.019-0.763h108.555C389.923,94.433,400.854,105.365,400.854,118.736z"/>
<path style="fill:#663A00;" d="M251.196,382.426v22.036c0,7.237,8.464,13.104,18.906,13.104h4.495c3.046,0,5.514-1.711,5.514-3.822
	v-8.378c0-1.977,2.312-3.579,5.164-3.579h11.214c2.851,0,5.164,1.603,5.164,3.579v5.594c0,3.649,4.267,6.607,9.531,6.607h16.327
	c5.264,0,9.531-2.958,9.531-6.607v-5.594c0-1.977,2.311-3.579,5.164-3.579h11.214c2.852,0,5.164,1.603,5.164,3.579v5.594
	c0,3.649,4.268,6.607,9.531,6.607h16.327c5.264,0,9.531-2.958,9.531-6.607v-5.594c0-1.977,2.312-3.579,5.164-3.579h11.214
	c2.852,0,5.164,1.603,5.164,3.579v5.594c0,3.649,4.268,6.607,9.531,6.607h16.327c5.264,0,9.531-2.958,9.531-6.607v-5.594
	c0-1.977,2.311-3.579,5.164-3.579h11.214c2.852,0,5.164,1.603,5.164,3.579v5.594c0,3.649,4.268,6.607,9.531,6.607h12.861
	c5.264,0,9.531-2.958,9.531-6.607v-5.594v-22.94L251.196,382.426L251.196,382.426z"/>
<g>
	<path style="fill:#CC7400;" d="M327.142,211.877h-6.357c-1.047,0-1.905-0.857-1.905-1.905v-20.197c0-1.047,0.857-1.905,1.905-1.905
		h6.357c6.357,0,11.558,5.201,11.558,11.558v0.889C338.699,206.676,333.498,211.877,327.142,211.877z"/>
	<path style="fill:#CC7400;" d="M327.142,251.79h-6.357c-1.047,0-1.905-0.857-1.905-1.905v-20.197c0-1.047,0.857-1.905,1.905-1.905
		h6.357c6.357,0,11.558,5.201,11.558,11.558v0.889C338.699,246.589,333.498,251.79,327.142,251.79z"/>
	<path style="fill:#CC7400;" d="M327.142,291.702h-6.357c-1.047,0-1.905-0.857-1.905-1.905V269.6c0-1.047,0.857-1.905,1.905-1.905
		h6.357c6.357,0,11.558,5.201,11.558,11.558v0.889C338.699,286.501,333.498,291.702,327.142,291.702z"/>
</g>
<path style="fill:#FF9811;" d="M282.6,359.522v22.864H29.434V142.249H158.29v133.097c0,4.431,1.801,8.453,4.708,11.36
	c2.907,2.897,6.91,4.689,11.351,4.689h40.135c32.528,0,59.729,22.798,66.496,53.296C282.038,349.467,282.6,354.422,282.6,359.522z"
	/>
<path style="fill:#FFA733;" d="M280.979,344.692H97.503c-16.774,0-30.375-13.6-30.375-30.375V142.249h91.162v133.097
	c0,4.431,1.801,8.453,4.708,11.36c2.907,2.897,6.91,4.689,11.351,4.689h40.135C247.012,291.396,274.213,314.193,280.979,344.692z"/>
<path style="fill:#AA6100;" d="M179.086,118.736v29.479c0,0.257,0,0.505-0.019,0.763c-0.401,13.01-11.17,23.541-24.285,23.541
	H32.932c-13.362,0-24.294-10.941-24.294-24.303v-29.479c0-13.372,10.932-24.303,24.294-24.303h121.851
	C168.154,94.433,179.086,105.365,179.086,118.736z"/>
<path style="fill:#CC7400;" d="M179.086,118.736v29.479c0,0.257,0,0.505-0.019,0.763H70.512c-13.363,0-24.303-10.931-24.303-24.303
	V95.196c0-0.257,0-0.505,0.019-0.763h108.555C168.154,94.433,179.086,105.365,179.086,118.736z"/>
<path style="fill:#884D00;" d="M29.429,382.426v22.036c0,7.237,8.464,13.104,18.905,13.104h4.495c3.046,0,5.514-1.711,5.514-3.822
	v-8.378c0-1.977,2.312-3.579,5.164-3.579h11.214c2.851,0,5.164,1.603,5.164,3.579v5.594c0,3.649,4.267,6.607,9.531,6.607h16.327
	c5.264,0,9.531-2.958,9.531-6.607v-5.594c0-1.977,2.311-3.579,5.164-3.579h11.214c2.852,0,5.164,1.603,5.164,3.579v5.594
	c0,3.649,4.268,6.607,9.531,6.607h16.327c5.264,0,9.531-2.958,9.531-6.607v-5.594c0-1.977,2.312-3.579,5.164-3.579h11.214
	c2.852,0,5.164,1.603,5.164,3.579v5.594c0,3.649,4.268,6.607,9.531,6.607h16.327c5.264,0,9.531-2.958,9.531-6.607v-5.594
	c0-1.977,2.311-3.579,5.164-3.579h11.214c2.852,0,5.164,1.603,5.164,3.579v5.594c0,3.649,4.268,6.607,9.531,6.607h12.861
	c5.264,0,9.531-2.958,9.531-6.607v-5.594v-22.94L29.429,382.426L29.429,382.426z"/>
<g>
	<path style="fill:#CC7400;" d="M105.373,211.877h-6.357c-1.047,0-1.905-0.857-1.905-1.905v-20.197c0-1.047,0.857-1.905,1.905-1.905
		h6.357c6.357,0,11.558,5.201,11.558,11.558v0.889C116.931,206.676,111.731,211.877,105.373,211.877z"/>
	<path style="fill:#CC7400;" d="M105.373,251.79h-6.357c-1.047,0-1.905-0.857-1.905-1.905v-20.197c0-1.047,0.857-1.905,1.905-1.905
		h6.357c6.357,0,11.558,5.201,11.558,11.558v0.889C116.931,246.589,111.731,251.79,105.373,251.79z"/>
	<path style="fill:#CC7400;" d="M105.373,291.702h-6.357c-1.047,0-1.905-0.857-1.905-1.905V269.6c0-1.047,0.857-1.905,1.905-1.905
		h6.357c6.357,0,11.558,5.201,11.558,11.558v0.889C116.931,286.501,111.731,291.702,105.373,291.702z"/>
</g>
<path d="M20.795,260.332c0,4.21,3.406,7.626,7.626,7.626c4.21,0,7.626-3.417,7.626-7.626v-80.19h113.604V192.1h-27.679
	c-1.495-3.478-3.976-6.447-7.088-8.542c-3.101-2.095-6.843-3.315-10.87-3.315h-5.959c-5.278,0-9.589,4.301-9.589,9.589v20.083
	c0,5.288,4.311,9.589,9.589,9.589h5.959c8.155,0,15.161-5.033,18.08-12.152h27.557v24.659h-27.679
	c-1.495-3.488-3.976-6.447-7.088-8.542c-3.101-2.095-6.843-3.315-10.87-3.315h-5.959c-5.278,0-9.589,4.301-9.589,9.589v20.083
	c0,5.288,4.311,9.589,9.589,9.589h5.959c8.155,0,15.161-5.033,18.08-12.152h27.557v24.669h-27.679
	c-2.99-6.976-9.914-11.867-17.958-11.867h-5.959c-5.278,0-9.589,4.311-9.589,9.589v20.083c0,5.288,4.311,9.589,9.589,9.589h5.959
	c8.155,0,15.161-5.023,18.08-12.141h30.75c2.054,3.529,4.983,6.498,8.501,8.572c3.518,2.074,7.616,3.264,11.989,3.264h40.136
	c4.21,0,7.626-3.417,7.626-7.626c0-4.21-3.417-7.626-7.626-7.626h-40.136c-4.647,0-8.43-3.783-8.43-8.43v-97.72
	c12.192-5.033,20.795-17.043,20.795-31.035v-26.225c0-18.497-15.05-33.556-33.556-33.556H33.546C15.05,86.804,0,101.864,0,120.361
	v26.225c0,13.992,8.603,26.011,20.795,31.035V260.332z M108.296,199.971c0,2.318-1.963,4.281-4.281,4.281h-0.295v-8.755h0.295
	c2.318,0,4.281,1.963,4.281,4.281V199.971z M108.296,239.883c0,2.318-1.963,4.281-4.281,4.281h-0.295v-8.755h0.295
	c2.318,0,4.281,1.963,4.281,4.281V239.883z M108.296,279.795c0,2.318-1.963,4.281-4.281,4.281h-0.295v-8.755h0.295
	c2.318,0,4.281,1.963,4.281,4.291V279.795z M15.253,146.586v-26.225c0-10.087,8.206-18.304,18.293-18.304h118.597
	c10.097,0,18.304,8.216,18.304,18.304v26.225c0,5.135-2.125,9.782-5.542,13.097c-3.284,3.223-7.799,5.206-12.762,5.206H33.546
	c-4.952,0-9.457-1.983-12.751-5.196C17.378,156.378,15.253,151.721,15.253,146.586z"/>
<path d="M467.787,290.634c-3.823-1.759-8.348-0.081-10.108,3.752c-1.759,3.823-0.071,8.359,3.752,10.108
	c41.055,18.834,35.316,63.027,35.316,70.265c-1.305,0-202.448,0.002-207.531,0c-1.108-5.925,7.142-47.744-30.384-75.888v-8.033
	V180.142h113.604V192.1h-27.679c-1.495-3.478-3.976-6.447-7.088-8.542c-3.112-2.095-6.854-3.315-10.87-3.315h-5.949
	c-5.296,0-9.589,4.293-9.589,9.589v20.083c0,5.296,4.293,9.589,9.589,9.589h5.949c8.155,0,15.161-5.033,18.08-12.152h27.557v24.659
	h-27.679c-1.495-3.488-3.976-6.447-7.088-8.542c-3.112-2.095-6.854-3.315-10.87-3.315h-5.949c-5.296,0-9.589,4.293-9.589,9.589
	v20.083c0,5.296,4.293,9.589,9.589,9.589h5.949c8.155,0,15.161-5.033,18.08-12.152h27.557v24.669h-27.679
	c-2.99-6.976-9.914-11.867-17.958-11.867h-5.949c-5.288,0-9.589,4.311-9.589,9.589v20.083c0,5.296,4.293,9.589,9.589,9.589h5.949
	c8.155,0,15.161-5.023,18.08-12.141h30.75c2.044,3.529,4.983,6.498,8.501,8.572c3.518,2.074,7.616,3.264,11.989,3.264h39.878
	c3.877,0,7.334-2.785,7.821-6.632c0.59-4.653-3.027-8.621-7.563-8.621h-40.136c-4.655,0-8.43-3.775-8.43-8.43v-97.72
	c12.192-5.033,20.795-17.043,20.795-31.035v-26.225c0-18.532-15.024-33.556-33.556-33.556H256.33
	c-18.527,0-33.546,15.019-33.546,33.546v26.235c0,13.992,8.603,26.011,20.795,31.035v112.53c-3.458-0.837-7.142,0.87-8.684,4.236
	c-1.759,3.823-0.081,8.348,3.752,10.108c21.396,9.795,35.316,31.386,35.316,55.022v15.243c0.104,0-222.256,0.005-237.915,0v-83.605
	c0-4.182-3.23-7.825-7.411-7.94c-4.319-0.119-7.842,3.342-7.842,7.623v113.624c0,11.623,11.653,20.734,26.53,20.734h4.495
	c7.362,0,13.138-5.033,13.138-11.45v-2.786c0-0.853,0.692-1.546,1.546-1.546h3.193c0.853,0,1.546,0.692,1.546,1.546
	c0,7.982,7.535,14.236,17.165,14.236h16.321c9.63,0,17.165-6.254,17.165-14.236c0-0.853,0.692-1.546,1.546-1.546h3.193
	c0.853,0,1.546,0.692,1.546,1.546c0,7.982,7.535,14.236,17.154,14.236h16.331c9.62,0,17.154-6.254,17.154-14.236
	c0-0.853,0.692-1.546,1.546-1.546h3.203c0.853,0,1.546,0.692,1.546,1.546c0,7.982,7.535,14.236,17.154,14.236h16.321
	c9.63,0,17.165-6.254,17.165-14.236c0-0.853,0.692-1.546,1.546-1.546h3.193c0.853,0,1.546,0.692,1.546,1.546
	c0,7.982,7.535,14.236,17.165,14.236h12.853c6.01,0,11.216-2.44,14.277-6.223c0.02-0.01,0.02-0.01,0.02-0.02
	c1.82-2.257,2.868-5.003,2.868-7.992c0-0.853,0.692-1.546,1.546-1.546h1.719c0.853,0,1.546,0.692,1.546,1.546
	c0,7.982,7.545,14.236,17.165,14.236h16.321c9.62,0,17.165-6.254,17.165-14.236c0-0.853,0.692-1.546,1.546-1.546h3.193
	c0.853,0,1.546,0.692,1.546,1.546c0,7.982,7.535,14.236,17.154,14.236h16.331c9.62,0,17.154-6.254,17.154-14.236
	c0-0.853,0.692-1.546,1.546-1.546h3.203c0.853,0,1.546,0.692,1.546,1.546c0,7.982,7.535,14.236,17.154,14.236h16.331
	c9.619,0,17.154-6.254,17.154-14.236c0-0.853,0.691-1.546,1.546-1.546h3.193c0.853,0,1.546,0.692,1.546,1.546
	c0,7.982,7.535,14.236,17.165,14.236h12.853c9.619,0,17.165-6.254,17.165-14.236v-51.443
	C512,329.987,494.642,302.948,467.787,290.634z M331.08,199.971c0,2.318-1.963,4.281-4.281,4.281h-0.285v-8.755h0.285
	c2.318,0,4.281,1.963,4.281,4.281V199.971z M331.08,239.883c0,2.318-1.963,4.281-4.281,4.281h-0.285v-8.755h0.285
	c2.318,0,4.281,1.963,4.281,4.281V239.883z M331.08,279.795c0,2.318-1.963,4.281-4.281,4.281h-0.285v-8.755h0.285
	c2.318,0,4.281,1.963,4.281,4.291V279.795z M243.579,159.683c-3.417-3.315-5.542-7.962-5.542-13.097v-26.225
	c0-10.087,8.206-18.304,18.293-18.304h118.597c10.097,0,18.304,8.216,18.304,18.304v26.225c0,5.135-2.125,9.782-5.542,13.097
	c-3.295,3.223-7.799,5.206-12.762,5.206H256.33C251.378,164.889,246.863,162.906,243.579,159.683z M273.963,408.308
	c0,0.832-0.625,1.558-1.455,1.614c-0.006,0-0.012,0.001-0.019,0.001c-0.142,0.01-0.285,0.02-0.437,0.02h-12.853
	c-0.008,0-0.017,0-0.025,0c-1.054-0.004-1.886-0.906-1.886-1.961v-2.615c0-6.284-5.613-11.206-12.792-11.206h-11.206
	c-7.179,0-12.792,4.922-12.792,11.206v2.66c0,1.057-0.855,1.914-1.912,1.916h-16.321h-0.025c-1.037-0.002-1.876-0.843-1.876-1.88
	v-2.696c0-6.284-5.623-11.206-12.792-11.206h-11.216c-7.169,0-12.792,4.922-12.792,11.206v2.67c0,1.05-0.851,1.904-1.902,1.906
	H145.33h-0.025c-1.037-0.002-1.876-0.843-1.876-1.88v-2.696c0-6.284-5.623-11.206-12.792-11.206H119.42
	c-7.169,0-12.782,4.922-12.782,11.206v2.695c0,1.037-0.839,1.878-1.876,1.881h-0.036H88.406c-1.057-0.002-1.912-0.859-1.912-1.915
	v-2.661c0-6.284-5.613-11.206-12.782-11.206H62.496c-7.169,0-12.792,4.922-12.792,11.206v2.615c0,1.083-0.878,1.961-1.961,1.961
	h-0.419c-6.996,0-11.277-3.549-11.277-5.481v-14.409h237.915V408.308z M496.747,408.027c0,1.057-0.855,1.914-1.912,1.916h-12.853
	c-1.057-0.002-1.912-0.859-1.912-1.916v-2.66c0-6.284-5.613-11.206-12.792-11.206h-11.206c-7.179,0-12.792,4.922-12.792,11.206
	v2.696c0,1.037-0.839,1.878-1.876,1.88h-0.025h-16.331h-0.025c-1.037-0.002-1.876-0.843-1.876-1.88v-2.696
	c0-6.284-5.623-11.206-12.792-11.206h-11.216c-7.169,0-12.792,4.922-12.792,11.206v2.671c0,1.05-0.851,1.903-1.902,1.905h-16.331
	h-0.025c-1.037-0.002-1.876-0.843-1.876-1.88v-2.696c0-6.284-5.613-11.206-12.792-11.206h-11.216
	c-7.169,0-12.782,4.922-12.782,11.206v2.615c0,1.054-0.832,1.956-1.886,1.96c-0.008,0-0.017,0-0.025,0H311.19
	c-0.009,0-0.017,0-0.025,0c-1.054-0.004-1.886-0.906-1.886-1.96v-2.615c0-6.284-5.613-11.206-12.782-11.206h-7.281v-4.108h207.531
	L496.747,408.027L496.747,408.027z"/>
<g>
</g>
<g>
</g>
<g>
</g>
<g>
</g>
<g>
</g>
<g>
</g>
<g>
</g>
<g>
</g>
<g>
</g>
<g>
</g>
<g>
</g>
<g>
</g>
<g>
</g>
<g>
</g>
<g>
</g>
</svg>
